<svg xmlns="http://www.w3.org/2000/svg" viewBox="0 0 700 70" width="700" height="70">
    <defs>
        <linearGradient id="bg" x1="0%" y1="0%" x2="100%" y2="0%">
            <stop offset="0%" style="stop-color:#00d4ff" />
            <stop offset="100%" style="stop-color:#bb86fc" />
        </linearGradient>
    </defs>
    <style>
        @keyframes peek {

            0%,
            100% {
                transform: translateY(0)
            }

            30% {
                transform: translateY(-6px)
            }

            60% {
                transform: translateY(-2px)
            }
        }

        @keyframes blink {

            0%,
            85%,
            87%,
            100% {
                transform: scaleY(1)
            }

            86% {
                transform: scaleY(0.1)
            }
        }

        @keyframes paw-tap {

            0%,
            100% {
                transform: rotate(0)
            }

            50% {
                transform: rotate(-8deg)
            }
        }

        .peek {
            animation: peek 3s ease-in-out infinite
        }

        .eyes {
            animation: blink 3s linear infinite;
            transform-origin: center
        }

        .paw-l {
            animation: paw-tap 1.5s ease-in-out infinite;
            transform-origin: 320px 20px
        }
    </style>
    <!-- Header bar -->
    <rect x="30" y="20" width="640" height="40" rx="20" fill="url(#bg)" />
    <text x="350" y="46" font-family="Segoe UI,sans-serif" font-size="16" font-weight="bold" fill="white"
        text-anchor="middle" letter-spacing="2">GITHUB ANALYTICS</text>
    <!-- Cat peeking from BEHIND the header, center-right -->
    <g class="peek" transform="translate(520, 0)">
        <!-- Head poking up from behind bar -->
        <circle cx="0" cy="16" r="12" fill="#f5f5f5" />
        <!-- Orange spot -->
        <ellipse cx="-5" cy="12" rx="5" ry="4" fill="#f4a460" opacity="0.7" />
        <!-- Ears above -->
        <polygon points="-9,8 -7,-2 -3,7" fill="#f5f5f5" />
        <polygon points="3,7 7,-2 9,8" fill="#f5f5f5" />
        <polygon points="-8,7 -7,0 -4,7" fill="#ff69b4" opacity="0.4" />
        <polygon points="4,7 7,0 8,7" fill="#ff69b4" opacity="0.4" />
        <!-- Big curious eyes peering over -->
        <g class="eyes">
            <circle cx="-4" cy="15" r="3.5" fill="#4169E1" />
            <circle cx="4" cy="15" r="3.5" fill="#4169E1" />
            <circle cx="-3.5" cy="15" r="2" fill="#111" />
            <circle cx="4.5" cy="15" r="2" fill="#111" />
            <circle cx="-4.5" cy="14" r="0.8" fill="white" />
            <circle cx="3.5" cy="14" r="0.8" fill="white" />
        </g>
        <!-- Paws gripping the bar top -->
        <g class="paw-l">
            <ellipse cx="-8" cy="21" rx="5" ry="3.5" fill="#f5f5f5" />
            <circle cx="-10" cy="22" r="1" fill="#ff69b4" opacity="0.4" />
            <circle cx="-7" cy="22.5" r="0.8" fill="#ff69b4" opacity="0.4" />
        </g>
        <ellipse cx="8" cy="21" rx="5" ry="3.5" fill="#f5f5f5" />
        <circle cx="6" cy="22" r="1" fill="#ff69b4" opacity="0.4" />
        <circle cx="9" cy="22.5" r="0.8" fill="#ff69b4" opacity="0.4" />
    </g>
</svg>